<?xml version="1.0" encoding="UTF-8"?>
<svg id="Layer_1" data-name="Layer 1" xmlns="http://www.w3.org/2000/svg" viewBox="0 0 522.65 198.89">
  <defs>
    <style>
      .cls-1 {
        fill: #fff;
      }

      .cls-2 {
        fill: #a3e635;
      }
    </style>
  </defs>
  <path class="cls-2" d="m117.85,31.43c-35.16,0-63.67,28.5-63.67,63.68s28.5,63.68,63.67,63.68,63.68-28.51,63.68-63.68-28.5-63.68-63.68-63.68Zm27.94,73.65c-4.81,0-8.83-3.4-9.77-7.92h-36.32c-.95,4.52-4.96,7.92-9.77,7.92-5.52,0-9.99-4.47-9.99-9.98s4.47-9.99,9.99-9.99c4.81,0,8.83,3.4,9.77,7.93h36.32c.95-4.53,4.96-7.93,9.77-7.93,5.52,0,9.99,4.47,9.99,9.99s-4.47,9.98-9.99,9.98Z"/>
  <g>
    <path class="cls-1" d="m265.5,96.21c4.2-1.78,7.49-4.28,9.83-7.54,2.84-3.95,4.26-8.86,4.26-14.72,0-8.17-2.75-14.61-8.26-19.32-5.51-4.71-13.1-7.06-22.78-7.06h-38.63v97.38h39.43c6.66,0,12.37-1.04,17.12-3.13,4.75-2.08,8.37-5.11,10.86-9.06,2.49-3.95,3.73-8.68,3.73-14.19,0-6.21-1.55-11.28-4.66-15.19-2.6-3.27-6.24-5.66-10.9-7.19Zm-18.41-33.58c4.88,0,8.61,1.11,11.19,3.33,2.57,2.22,3.86,5.42,3.86,9.59s-1.24,7.71-3.73,10.06c-2.49,2.35-6.08,3.53-10.79,3.53h-20.65v-26.51h20.12Zm12.65,63.81c-2.58,2.31-6.31,3.46-11.19,3.46h-21.58v-26.38h21.58c4.8,0,8.5,1.13,11.12,3.4,2.62,2.26,3.93,5.44,3.93,9.52,0,4.35-1.29,7.68-3.86,9.99Z"/>
    <path class="cls-1" d="m331.27,80.29c-4.26-2.09-9.37-3.13-15.32-3.13s-11.04.98-15.52,2.93c-4.49,1.95-7.95,4.69-10.39,8.19-2.44,3.51-3.66,7.66-3.66,12.46h13.85c0-3.46,1.29-6.15,3.86-8.06,2.58-1.91,6.26-2.86,11.06-2.86,2.75,0,5.15.42,7.19,1.27,2.04.85,3.62,2.18,4.73,4,1.11,1.82,1.67,4.24,1.67,7.26v1.47l-19.72,1.6c-7.82.62-13.83,2.73-18.05,6.33-4.22,3.6-6.33,8.42-6.33,14.45s2.02,11.08,6.06,14.85c4.04,3.78,9.52,5.66,16.45,5.66,5.15,0,9.75-1.07,13.79-3.2,4.04-2.13,6.77-4.88,8.19-8.26l1.2,9.72h14.25v-39.96c0-6.13-1.16-11.26-3.46-15.39-2.31-4.13-5.59-7.24-9.86-9.32Zm-2.4,38.03c0,5.06-1.49,9.01-4.46,11.86-2.98,2.84-6.99,4.26-12.05,4.26-3.55,0-6.31-.75-8.26-2.26-1.95-1.51-2.93-3.73-2.93-6.66,0-2.66,1.07-4.82,3.2-6.46,2.13-1.64,5.73-2.69,10.79-3.13l13.72-1.07v3.46Z"/>
    <path class="cls-1" d="m386.56,107.39l-11.86-2.8c-5.68-1.33-8.53-3.82-8.53-7.46,0-2.4.89-4.31,2.66-5.73,1.78-1.42,4.26-2.13,7.46-2.13s5.68.82,7.46,2.46c1.78,1.64,2.66,3.89,2.66,6.73h15.45c-.09-4.26-1.18-7.99-3.26-11.19-2.09-3.2-5-5.68-8.73-7.46-3.73-1.78-8.04-2.66-12.92-2.66s-9.55.82-13.45,2.46c-3.91,1.64-6.99,4.02-9.26,7.13-2.26,3.11-3.4,6.79-3.4,11.06,0,5.24,1.44,9.35,4.33,12.32,2.88,2.98,7.3,5.13,13.25,6.46l11.86,2.8c2.93.62,4.93,1.55,6,2.8,1.07,1.25,1.6,2.66,1.6,4.26,0,2.4-1,4.31-3,5.73-2,1.42-4.95,2.13-8.86,2.13-3.64,0-6.48-.84-8.53-2.53-2.04-1.69-3.11-3.95-3.2-6.79h-15.45c0,6.48,2.42,11.72,7.26,15.72,4.84,4,11.34,5.99,19.52,5.99,5.42,0,10.21-.87,14.39-2.6,4.17-1.73,7.41-4.22,9.72-7.46,2.31-3.24,3.46-7.08,3.46-11.52,0-5.06-1.4-8.97-4.2-11.72-2.8-2.75-6.95-4.75-12.46-5.99Z"/>
    <path class="cls-1" d="m459.55,79.15l-1.07,9.99c-2.04-3.82-5.08-6.77-9.12-8.86-4.04-2.09-8.55-3.13-13.52-3.13-6.13,0-11.52,1.42-16.18,4.26-4.66,2.84-8.26,6.79-10.79,11.86-2.53,5.06-3.8,11.06-3.8,17.98s1.2,12.92,3.6,18.25c2.4,5.33,5.91,9.52,10.52,12.59,4.62,3.06,10.12,4.6,16.52,4.6,4.97,0,9.48-.93,13.52-2.8,4.04-1.87,7.08-4.44,9.12-7.73v39.3h16.12v-96.31h-14.92Zm-3.66,43.29c-1.55,3.02-3.71,5.4-6.46,7.13-2.75,1.73-6.04,2.6-9.86,2.6s-6.97-.87-9.72-2.6c-2.75-1.73-4.86-4.11-6.33-7.13-1.46-3.02-2.2-6.48-2.2-10.39s.73-7.37,2.2-10.39c1.47-3.02,3.57-5.4,6.33-7.13,2.75-1.73,5.99-2.6,9.72-2.6s7.1.85,9.86,2.53c2.75,1.69,4.91,4.04,6.46,7.06,1.55,3.02,2.33,6.53,2.33,10.52s-.78,7.37-2.33,10.39Z"/>
  </g>
</svg>